<?xml version="1.0" encoding="UTF-8"?>
<svg id="_レイヤー_1" data-name="レイヤー_1" xmlns="http://www.w3.org/2000/svg" version="1.1" viewBox="0 0 125.42 30.25">
  <!-- Generator: Adobe Illustrator 30.1.0, SVG Export Plug-In . SVG Version: 2.1.1 Build 136)  -->
  <g>
    <path d="M0,.87h6.37c1.41,0,2.66.55,3.75,1.65,1.03,1.16,1.55,2.49,1.55,3.98v22.87h-6.63V8.52c0-.37-.13-.69-.37-.95-.25-.26-.55-.4-.9-.4H0V.87Z" style="fill: #fff;"/>
    <path d="M19.95,2.52c1.09-1.1,2.35-1.65,3.75-1.65h24.9c1.41,0,2.66.55,3.75,1.65,1.03,1.16,1.55,2.49,1.55,3.98v17.24c0,1.49-.52,2.82-1.55,3.98-1.09,1.1-2.34,1.65-3.75,1.65h-24.9c-1.41,0-2.66-.55-3.75-1.65-1.03-1.16-1.55-2.49-1.55-3.98V6.5c0-1.49.52-2.82,1.55-3.98ZM47.26,23.07V7.18h-22.21v15.89h22.21Z" style="fill: #fff;"/>
    <path d="M58.92,2.52c1.09-1.1,2.35-1.65,3.75-1.65h24.9c1.41,0,2.66.55,3.75,1.65,1.03,1.16,1.55,2.49,1.55,3.98v17.24c0,1.49-.52,2.82-1.55,3.98-1.09,1.1-2.34,1.65-3.75,1.65h-24.9c-1.41,0-2.66-.55-3.75-1.65-1.03-1.16-1.55-2.49-1.55-3.98V6.5c0-1.49.52-2.82,1.55-3.98ZM86.23,23.07V7.18h-22.21v15.89h22.21Z" style="fill: #fff;"/>
  </g>
  <path d="M112.39,5.52v5c0,1.31-.12,2.29-.36,2.94s-.75,1.22-1.53,1.71-1.81.73-3.1.73c-1.48,0-2.61-.23-3.38-.69s-1.3-1.02-1.57-1.66-.41-1.58-.41-2.79v-5.24c0-1.44.14-2.5.42-3.19s.83-1.25,1.64-1.68,1.81-.65,3-.65c1.32,0,2.39.24,3.21.71s1.37,1.05,1.65,1.72.42,1.7.42,3.09ZM107.96,4.25c0-.77-.04-1.24-.11-1.42s-.28-.27-.62-.27c-.31,0-.51.1-.61.29s-.14.66-.14,1.4v7.34c0,.84.04,1.34.12,1.51s.29.25.64.25c.3,0,.49-.1.58-.29s.13-.64.13-1.35v-7.47ZM120.56,0l-10.98,30.25h-2.67L117.93,0h2.63ZM125.42,19.59v5.02c0,1.3-.12,2.27-.36,2.93s-.75,1.23-1.53,1.72-1.81.73-3.1.73c-1.47,0-2.59-.23-3.37-.7s-1.31-1.03-1.58-1.67-.41-1.57-.41-2.77v-5.25c0-1.43.14-2.49.42-3.18s.83-1.25,1.64-1.69,1.81-.66,3-.66c1.33,0,2.4.24,3.23.72s1.37,1.06,1.64,1.73.41,1.7.41,3.08ZM120.98,18.33c0-.77-.04-1.24-.11-1.43s-.28-.28-.62-.28c-.31,0-.51.1-.6.29s-.13.67-.13,1.42v7.34c0,.83.04,1.33.12,1.49s.29.25.62.25c.31,0,.51-.09.59-.28s.12-.64.12-1.36v-7.45Z" style="fill: #fff;"/>
</svg>