<svg xmlns="http://www.w3.org/2000/svg" version="1.1" viewBox="0 0 166.66 164.19" width="200" height="200">

  <g id="step-1" class="gauge-step">
    <path d="M40.29,56.4c6.93-11.76,18.71-20.43,32.65-23.34V.12C44.56,3.66,20.65,21.55,8.91,46.2l31.38,10.2Z" style="fill: currentColor"/>
  </g>

  <g id="step-2" class="gauge-step">
    <path d="M27.37,140.1l19.32-26.59c-8.09-8.66-13.03-20.2-13.03-32.84,0-1.89.12-3.75.34-5.58l-31.31-10.17c-1.02,5.1-1.56,10.36-1.56,15.75,0,23.45,10.12,44.6,26.25,59.43Z" style="fill: currentColor"/>
  </g>

  <g id="step-3" class="gauge-step">
    <path d="M92.66,32.87c14.25,2.69,26.34,11.37,33.45,23.27l31.41-10.21C145.6,21.15,121.35,3.24,92.66,0v32.87Z" style="fill: currentColor"/>
  </g>

  <g id="step-4" class="gauge-step">
    <path d="M103.43,127.07c-6.16,2.64-12.96,4.12-20.1,4.12s-14.47-1.6-20.83-4.44l-19.65,27.04c11.99,6.62,25.79,10.4,40.47,10.4s27.96-3.63,39.79-10.02l-19.69-27.1Z" style="fill: currentColor"/>
  </g>

  <g id="step-5" class="gauge-step">
    <path d="M133.28,75.86c.24,1.96.38,3.94.38,5.96,0,13.11-5.24,25.03-13.77,33.88l19.57,26.94c16.7-15.07,27.19-36.76,27.19-60.82,0-5.57-.57-11.01-1.64-16.27l-31.74,10.31Z" style="fill: currentColor"/>
  </g>

</svg>
