<?xml version="1.0" encoding="UTF-8"?>
<svg id="_レイヤー_1" data-name="レイヤー_1" xmlns="http://www.w3.org/2000/svg" version="1.1" viewBox="0 0 166.66 164.19">
  <!-- Generator: Adobe Illustrator 30.1.0, SVG Export Plug-In . SVG Version: 2.1.1 Build 136)  -->
  <path d="M39.73,57.2c7.03-11.93,18.98-20.72,33.12-23.67V.12C44.06,3.71,19.8,21.86,7.9,46.86l31.83,10.34Z" style="fill: #00CCFF; opacity: .2;"/>
  <path d="M26.63,142.1l19.6-26.97c-8.21-8.79-13.22-20.49-13.22-33.31,0-1.92.12-3.8.34-5.66L1.59,65.84c-1.03,5.17-1.59,10.51-1.59,15.98,0,23.78,10.26,45.23,26.63,60.28Z" style="fill: #00CCFF;"/>
  <path d="M92.85,33.34c14.45,2.73,26.72,11.54,33.93,23.6l31.86-10.35C146.55,21.45,121.96,3.29,92.85,0v33.34Z" style="fill: #00CCFF;"/>
  <path d="M103.43,127.07c-6.16,2.64-12.96,4.12-20.1,4.12s-14.47-1.6-20.83-4.44l-19.65,27.04c11.99,6.62,25.79,10.4,40.47,10.4s27.96-3.63,39.79-10.02l-19.69-27.1Z" style="fill: #00CCFF;"/>
  <path d="M133.28,75.86c.24,1.96.38,3.94.38,5.96,0,13.11-5.24,25.03-13.77,33.88l19.57,26.94c16.7-15.07,27.19-36.76,27.19-60.82,0-5.57-.57-11.01-1.64-16.27l-31.74,10.31Z" style="fill: #00CCFF;"/>
</svg>