<?xml version="1.0" encoding="UTF-8"?>
<svg id="_レイヤー_1" data-name="レイヤー_1" xmlns="http://www.w3.org/2000/svg" version="1.1" viewBox="0 0 25.23 36.34">
  <!-- Generator: Adobe Illustrator 30.1.0, SVG Export Plug-In . SVG Version: 2.1.1 Build 136)  -->
  <path d="M11.16,6.64v6.01c0,1.57-.13,2.75-.38,3.53-.26.79-.81,1.47-1.65,2.05-.84.58-1.96.88-3.34.88-1.6,0-2.82-.28-3.65-.83-.84-.55-1.4-1.22-1.69-2-.29-.78-.44-1.9-.44-3.35v-6.29c0-1.73.15-3.01.46-3.84.31-.83.9-1.5,1.77-2.02.87-.52,1.95-.78,3.24-.78,1.42,0,2.58.29,3.47.85.89.57,1.48,1.26,1.78,2.06.3.81.45,2.05.45,3.72ZM6.37,5.1c0-.92-.04-1.49-.12-1.71-.08-.22-.3-.32-.67-.32-.34,0-.56.12-.66.35s-.15.79-.15,1.69v8.82c0,1.01.04,1.61.13,1.82s.32.3.69.3c.32,0,.53-.12.63-.35.09-.23.14-.77.14-1.62V5.1ZM19.99,0l-11.86,36.34h-2.88L17.14,0h2.84ZM25.23,23.54v6.03c0,1.56-.13,2.73-.38,3.52-.26.79-.81,1.48-1.65,2.06-.84.58-1.96.88-3.34.88-1.59,0-2.8-.28-3.64-.84-.84-.56-1.41-1.23-1.7-2.01-.29-.78-.44-1.89-.44-3.33v-6.31c0-1.71.15-2.99.46-3.82.31-.83.9-1.51,1.77-2.03.87-.53,1.95-.79,3.24-.79,1.44,0,2.6.29,3.48.86.89.58,1.48,1.27,1.77,2.08.29.81.44,2.04.44,3.7ZM20.44,22.03c0-.92-.04-1.5-.12-1.72-.08-.22-.3-.34-.67-.34-.34,0-.55.12-.65.35-.09.23-.14.8-.14,1.71v8.82c0,.99.04,1.59.13,1.79.09.2.31.3.67.3.34,0,.55-.11.64-.33.09-.22.13-.77.13-1.63v-8.95Z" style="fill: #f7f8f8;"/>
</svg>