<?xml version="1.0" encoding="UTF-8"?>
<svg id="_レイヤー_1" data-name="レイヤー_1" xmlns="http://www.w3.org/2000/svg" version="1.1" viewBox="0 0 36.58 28.5">
  <!-- Generator: Adobe Illustrator 30.1.0, SVG Export Plug-In . SVG Version: 2.1.1 Build 136)  -->
  <path d="M0,12.74c0-.46,0-.96,0-1.43v-5.55C0,4.17.57,2.81,1.7,1.69,2.82.56,4.17,0,5.76,0h28.57c.12.03.18.09.18.18v6.24c-.03.12-.09.18-.18.18H7.33v3.87h23.51c1.53,0,2.89.56,4.06,1.69,1.12,1.18,1.69,2.53,1.69,4.06v6.61c0,1.53-.56,2.88-1.69,4.06-1.18,1.13-2.54,1.66-4.07,1.61l-25.01-.05c-.05.05-.04.05-.13.05h-.1c-1.47-.07-2.74-.71-3.78-1.73-1.09-1.15-1.81-2.47-1.81-3.94v-10.08ZM29.27,21.98v-4.92H7.15v4.92h22.11Z" style="fill: #fff;"/>
</svg>