<?xml version="1.0" encoding="UTF-8"?>
<svg id="_レイヤー_1" data-name="レイヤー_1" xmlns="http://www.w3.org/2000/svg" version="1.1" viewBox="0 0 36.49 28.28">
  <!-- Generator: Adobe Illustrator 30.1.0, SVG Export Plug-In . SVG Version: 2.1.1 Build 136)  -->
  <path d="M30.76,0c1.53,0,2.88.56,4.05,1.67,1.12,1.18,1.68,2.52,1.68,4.02v5.5c0,.84-.18,1.65-.55,2.43.37.76.55,1.57.55,2.43v6.54c0,1.57-.56,2.91-1.68,4.02-1.12,1.11-2.47,1.67-4.05,1.67H5.74c-1.53,0-2.88-.56-4.05-1.67-1.12-1.17-1.68-2.51-1.68-4.02v-6.54c0-.85.18-1.66.55-2.43-.37-.78-.55-1.59-.55-2.43v-5.5c0-1.57.56-2.91,1.68-4.02C2.81.56,4.16,0,5.74,0h25.02ZM7.3,6.53v3.83h21.89v-3.83H7.3ZM7.3,21.75h21.89v-4.88H7.3v4.88Z" style="fill: #fff;"/>
</svg>