<?xml version="1.0" encoding="UTF-8"?>
<svg id="_レイヤー_1" data-name="レイヤー_1" xmlns="http://www.w3.org/2000/svg" version="1.1" viewBox="0 0 35.63 31.09">
  <!-- Generator: Adobe Illustrator 30.1.0, SVG Export Plug-In . SVG Version: 2.1.1 Build 136)  -->
  <path d="M1.55,1.79C2.65.6,3.91,0,5.32,0h24.99c1.41,0,2.67.6,3.77,1.79,1.04,1.27,1.55,2.72,1.55,4.35v3.83c0,1.63-.52,3.08-1.55,4.35-1.1,1.2-2.35,1.79-3.77,1.79H5.32c-1.41,0-2.67-.6-3.77-1.79-1.04-1.27-1.55-2.72-1.55-4.35V6.14c0-1.63.52-3.08,1.55-4.35ZM28.96,10.46V6.88H6.67v3.58h22.29ZM5.32,15.46h24.99c1.41,0,2.67.6,3.77,1.79,1.04,1.27,1.55,2.72,1.55,4.35v3.83c0,1.63-.52,3.08-1.55,4.35-1.1,1.2-2.35,1.79-3.77,1.79H5.32c-1.41,0-2.67-.6-3.77-1.79-1.04-1.27-1.55-2.72-1.55-4.35v-3.83c0-1.63.52-3.08,1.55-4.35ZM28.96,24.21v-3.58H6.67v3.58h22.29Z" style="fill: #f7f8f8;"/>
</svg>
