<?xml version="1.0" encoding="UTF-8"?>
<svg id="_レイヤー_1" data-name="レイヤー_1" xmlns="http://www.w3.org/2000/svg" version="1.1" viewBox="0 0 36.36 28.32">
  <!-- Generator: Adobe Illustrator 30.1.0, SVG Export Plug-In . SVG Version: 2.1.1 Build 136)  -->
  <path d="M34.96,28.32H5.59c-1.48,0-2.8-.54-3.96-1.63-1.09-1.16-1.63-2.48-1.63-3.96v-6.64c0-1.48.54-2.8,1.63-3.96,1.16-1.09,2.48-1.63,3.96-1.63h23.77v-4.23H2.11V0h28.66c1.55,0,2.87.54,3.96,1.63,1.09,1.09,1.63,2.41,1.63,3.96v5.57c0,1.48-.54,2.8-1.63,3.96-1.16,1.09-2.47,1.63-3.96,1.63H7.01v5.3h27.95v6.26Z" style="fill: #fff;"/>
</svg>