<?xml version="1.0" encoding="UTF-8"?>
<!-- Created with Inkscape (http://www.inkscape.org/) -->
<svg width="150mm" height="150mm" version="1.1" viewBox="0 0 150 150" xmlns="http://www.w3.org/2000/svg">
 <path d="m150.01 75.201a75 75 0 0 1-75 75 75 75 0 0 1-75-75 75 75 0 0 1 75-75 75 75 0 0 1 75 75z" fill="#00d8ff" opacity=".5" stroke-width=".25297"/>
 <path transform="scale(.96027 1.0414)" d="m33.288 67.849v25.023q0 5.4798 4.025 9.7473 3.8795 3.7825 9.3108 4.025l0.19398 0.24247q0.14548 0.19398 0.33946 0.19398 0 0 61.878 0 5.6738 0 10.038-4.1705 4.1705-4.3644 4.1705-10.038 0-7.8075 0-16.342 0-5.6738-4.1705-10.038-4.3644-4.1705-10.038-4.1705 0 0-58.096 0 0 0 0-9.5533 0 0 66.728 0 0.33946 0 0.43644-0.43644v-15.421q0-0.33946-0.43644-0.43644 0 0-70.607 0-5.8678 0-10.038 4.1705t-4.1705 10.038q0 6.6437 0 13.724 0 1.7458 0.43644 3.4431zm17.215 22.938v-12.172h54.653t0 12.172z" fill="#fff" stroke-width=".68969" aria-label="6"/>
 <g fill="#00d8ff" font-family="'002 zou ver.2'" font-size="99.316px" stroke-width=".68969">
  <text transform="scale(.96027 1.0414)" x="202.1777" y="220.90645" xml:space="preserve"><tspan x="202.1777" y="220.90645" fill="#ffffff" font-family="'Fear Robot'" stroke-width=".68969">5</tspan></text>
  <text transform="scale(.96027 1.0414)" x="107.90212" y="221.16052" xml:space="preserve"><tspan x="107.90212" y="221.16052" fill="#ffffff" font-family="'Fear Robot'" stroke-width=".68969">4</tspan></text>
  <text transform="scale(.96027 1.0414)" x="-91.533829" y="139.34967" xml:space="preserve"><tspan x="-91.533829" y="139.34967" fill="#ffffff" font-family="'Fear Robot'" stroke-width=".68969">1</tspan></text>
  <text transform="scale(.96027 1.0414)" x="24.094501" y="222.93901" xml:space="preserve"><tspan x="24.094501" y="222.93901" fill="#ffffff" font-family="'Fear Robot'" stroke-width=".68969">3</tspan></text>
  <text transform="scale(.96027 1.0414)" x="-73.855515" y="222.68494" xml:space="preserve"><tspan x="-73.855515" y="222.68494" fill="#ffffff" font-family="'Fear Robot'" stroke-width=".68969">2</tspan></text>
 </g>
</svg>
