<svg role="img" viewBox="0 0 24 24" class="sns-svg Youtube-icon" xmlns="http://www.w3.org/2000/svg">
  <title>Youtube</title>
  <path fill="currentColor"
    d="M23.498 6.186a2.974 2.974 0 0 0-2.09-2.103C19.161 3.5 12 3.5 12 3.5s-7.161 0-9.408.583A2.974 2.974 0 0 0 .502 6.186 31.06 31.06 0 0 0 0 12a31.06 31.06 0 0 0 .502 5.814 2.974 2.974 0 0 0 2.09 2.103C4.839 20.5 12 20.5 12 20.5s7.161 0 9.408-.583a2.974 2.974 0 0 0 2.09-2.103A31.06 31.06 0 0 0 24 12a31.06 31.06 0 0 0-.502-5.814zM9.75 15.568V8.432L15.818 12 9.75 15.568z"
  />
</svg>
